<mxfile host="Electron" modified="2024-09-26T05:27:11.554Z" agent="Mozilla/5.0 (Windows NT 10.0; Win64; x64) AppleWebKit/537.36 (KHTML, like Gecko) draw.io/22.0.3 Chrome/114.0.5735.289 Electron/25.8.4 Safari/537.36" etag="i9muBORLOliP6e8hyPzY" version="22.0.3" type="device">
  <diagram name="PÃ¡gina-1" id="JQLOy4nl7xPPVDxbQ1nu">
    <mxGraphModel dx="1018" dy="772" grid="1" gridSize="10" guides="1" tooltips="1" connect="1" arrows="1" fold="1" page="1" pageScale="1" pageWidth="827" pageHeight="1169" math="0" shadow="0">
      <root>
        <mxCell id="0" />
        <mxCell id="1" parent="0" />
        <mxCell id="F36aT2HTxTsf2F1regIV-1" value="Servicio" style="swimlane;fontStyle=1;align=center;verticalAlign=top;childLayout=stackLayout;horizontal=1;startSize=26;horizontalStack=0;resizeParent=1;resizeParentMax=0;resizeLast=0;collapsible=1;marginBottom=0;whiteSpace=wrap;html=1;" vertex="1" parent="1">
          <mxGeometry x="60" y="450" width="240" height="230" as="geometry" />
        </mxCell>
        <mxCell id="F36aT2HTxTsf2F1regIV-2" value="&lt;li&gt;&lt;code&gt;id&lt;/code&gt;&lt;/li&gt;&lt;li&gt;&lt;code&gt;nombre&lt;/code&gt;&lt;/li&gt;&lt;li&gt;&lt;code&gt;tipo&lt;/code&gt;&lt;/li&gt;&lt;li&gt;&lt;code&gt;instructor&lt;/code&gt;&lt;/li&gt;&lt;li&gt;&lt;code&gt;reservas&lt;/code&gt;&lt;/li&gt;" style="text;strokeColor=none;fillColor=none;align=left;verticalAlign=top;spacingLeft=4;spacingRight=4;overflow=hidden;rotatable=0;points=[[0,0.5],[1,0.5]];portConstraint=eastwest;whiteSpace=wrap;html=1;" vertex="1" parent="F36aT2HTxTsf2F1regIV-1">
          <mxGeometry y="26" width="240" height="94" as="geometry" />
        </mxCell>
        <mxCell id="F36aT2HTxTsf2F1regIV-3" value="" style="line;strokeWidth=1;fillColor=none;align=left;verticalAlign=middle;spacingTop=-1;spacingLeft=3;spacingRight=3;rotatable=0;labelPosition=right;points=[];portConstraint=eastwest;strokeColor=inherit;" vertex="1" parent="F36aT2HTxTsf2F1regIV-1">
          <mxGeometry y="120" width="240" height="8" as="geometry" />
        </mxCell>
        <mxCell id="F36aT2HTxTsf2F1regIV-4" value="&lt;li&gt;&lt;code&gt;agregarReserva(reserva)&lt;/code&gt;&lt;/li&gt;&lt;li&gt;&lt;code&gt;cancelarReserva(reserva)&lt;/code&gt;&lt;/li&gt;&lt;li&gt;&lt;code&gt;modificarDetalles(detalles)&lt;/code&gt;&lt;/li&gt;" style="text;strokeColor=none;fillColor=none;align=left;verticalAlign=top;spacingLeft=4;spacingRight=4;overflow=hidden;rotatable=0;points=[[0,0.5],[1,0.5]];portConstraint=eastwest;whiteSpace=wrap;html=1;" vertex="1" parent="F36aT2HTxTsf2F1regIV-1">
          <mxGeometry y="128" width="240" height="102" as="geometry" />
        </mxCell>
        <mxCell id="F36aT2HTxTsf2F1regIV-5" value="Miembro" style="swimlane;fontStyle=1;align=center;verticalAlign=top;childLayout=stackLayout;horizontal=1;startSize=26;horizontalStack=0;resizeParent=1;resizeParentMax=0;resizeLast=0;collapsible=1;marginBottom=0;whiteSpace=wrap;html=1;" vertex="1" parent="1">
          <mxGeometry x="90" y="150" width="250" height="270" as="geometry" />
        </mxCell>
        <mxCell id="F36aT2HTxTsf2F1regIV-6" value="&lt;li&gt;&lt;code&gt;id&lt;/code&gt;&lt;/li&gt;&lt;li&gt;&lt;code&gt;nombre&lt;/code&gt;&lt;/li&gt;&lt;li&gt;&lt;code&gt;email&lt;/code&gt;&lt;/li&gt;&lt;li&gt;&lt;code&gt;metas&lt;/code&gt;&lt;/li&gt;&lt;li&gt;&lt;code&gt;actividadesRegistradas&lt;/code&gt;&lt;/li&gt;&lt;li&gt;&lt;code&gt;reservas&lt;/code&gt;&lt;/li&gt;" style="text;strokeColor=none;fillColor=none;align=left;verticalAlign=top;spacingLeft=4;spacingRight=4;overflow=hidden;rotatable=0;points=[[0,0.5],[1,0.5]];portConstraint=eastwest;whiteSpace=wrap;html=1;" vertex="1" parent="F36aT2HTxTsf2F1regIV-5">
          <mxGeometry y="26" width="250" height="124" as="geometry" />
        </mxCell>
        <mxCell id="F36aT2HTxTsf2F1regIV-7" value="" style="line;strokeWidth=1;fillColor=none;align=left;verticalAlign=middle;spacingTop=-1;spacingLeft=3;spacingRight=3;rotatable=0;labelPosition=right;points=[];portConstraint=eastwest;strokeColor=inherit;" vertex="1" parent="F36aT2HTxTsf2F1regIV-5">
          <mxGeometry y="150" width="250" height="8" as="geometry" />
        </mxCell>
        <mxCell id="F36aT2HTxTsf2F1regIV-8" value="&lt;li&gt;&lt;code&gt;registrarActividad(actividad)&lt;/code&gt;&lt;/li&gt;&lt;li&gt;&lt;code&gt;inscribirseEnServicio(servicio)&lt;/code&gt;&lt;/li&gt;&lt;li&gt;&lt;code&gt;cancelarReserva(reserva)&lt;/code&gt;&lt;/li&gt;&lt;li&gt;&lt;code&gt;establecerMeta(meta)&lt;/code&gt;&lt;/li&gt;" style="text;strokeColor=none;fillColor=none;align=left;verticalAlign=top;spacingLeft=4;spacingRight=4;overflow=hidden;rotatable=0;points=[[0,0.5],[1,0.5]];portConstraint=eastwest;whiteSpace=wrap;html=1;" vertex="1" parent="F36aT2HTxTsf2F1regIV-5">
          <mxGeometry y="158" width="250" height="112" as="geometry" />
        </mxCell>
        <mxCell id="F36aT2HTxTsf2F1regIV-9" value="Instructor" style="swimlane;fontStyle=1;align=center;verticalAlign=top;childLayout=stackLayout;horizontal=1;startSize=26;horizontalStack=0;resizeParent=1;resizeParentMax=0;resizeLast=0;collapsible=1;marginBottom=0;whiteSpace=wrap;html=1;" vertex="1" parent="1">
          <mxGeometry x="490" y="160" width="240" height="220" as="geometry" />
        </mxCell>
        <mxCell id="F36aT2HTxTsf2F1regIV-10" value="&lt;li&gt;&lt;code&gt;id&lt;/code&gt;&lt;/li&gt;&lt;li&gt;&lt;code&gt;nombre&lt;/code&gt;&lt;/li&gt;&lt;li&gt;&lt;code&gt;especialidad&lt;/code&gt;&lt;/li&gt;&lt;li&gt;&lt;code&gt;servicios&lt;/code&gt;&lt;/li&gt;" style="text;strokeColor=none;fillColor=none;align=left;verticalAlign=top;spacingLeft=4;spacingRight=4;overflow=hidden;rotatable=0;points=[[0,0.5],[1,0.5]];portConstraint=eastwest;whiteSpace=wrap;html=1;" vertex="1" parent="F36aT2HTxTsf2F1regIV-9">
          <mxGeometry y="26" width="240" height="74" as="geometry" />
        </mxCell>
        <mxCell id="F36aT2HTxTsf2F1regIV-11" value="" style="line;strokeWidth=1;fillColor=none;align=left;verticalAlign=middle;spacingTop=-1;spacingLeft=3;spacingRight=3;rotatable=0;labelPosition=right;points=[];portConstraint=eastwest;strokeColor=inherit;" vertex="1" parent="F36aT2HTxTsf2F1regIV-9">
          <mxGeometry y="100" width="240" height="8" as="geometry" />
        </mxCell>
        <mxCell id="F36aT2HTxTsf2F1regIV-12" value="&lt;li&gt;&lt;code&gt;crearServicio(servicio)&lt;/code&gt;&lt;/li&gt;&lt;li&gt;&lt;code&gt;modificarServicio(servicio)&lt;/code&gt;&lt;/li&gt;&lt;li&gt;&lt;code&gt;eliminarServicio(servicio)&lt;/code&gt;&lt;/li&gt;" style="text;strokeColor=none;fillColor=none;align=left;verticalAlign=top;spacingLeft=4;spacingRight=4;overflow=hidden;rotatable=0;points=[[0,0.5],[1,0.5]];portConstraint=eastwest;whiteSpace=wrap;html=1;" vertex="1" parent="F36aT2HTxTsf2F1regIV-9">
          <mxGeometry y="108" width="240" height="112" as="geometry" />
        </mxCell>
        <mxCell id="F36aT2HTxTsf2F1regIV-13" value="Reserva" style="swimlane;fontStyle=1;align=center;verticalAlign=top;childLayout=stackLayout;horizontal=1;startSize=26;horizontalStack=0;resizeParent=1;resizeParentMax=0;resizeLast=0;collapsible=1;marginBottom=0;whiteSpace=wrap;html=1;" vertex="1" parent="1">
          <mxGeometry x="520" y="400" width="210" height="260" as="geometry" />
        </mxCell>
        <mxCell id="F36aT2HTxTsf2F1regIV-14" value="&lt;li&gt;&lt;ul&gt;&lt;li&gt;&lt;code&gt;id&lt;/code&gt;&lt;/li&gt;&lt;li&gt;&lt;code&gt;fecha&lt;/code&gt;&lt;/li&gt;&lt;li&gt;&lt;code&gt;hora&lt;/code&gt;&lt;/li&gt;&lt;li&gt;&lt;code&gt;miembro&lt;/code&gt;&lt;/li&gt;&lt;li&gt;&lt;code&gt;servicio&lt;/code&gt;&lt;/li&gt;&lt;li&gt;&lt;code&gt;instalacion&lt;/code&gt;&lt;/li&gt;&lt;/ul&gt;&lt;/li&gt;&lt;li&gt;&lt;p&gt;&lt;/p&gt;&lt;/li&gt;" style="text;strokeColor=none;fillColor=none;align=left;verticalAlign=top;spacingLeft=4;spacingRight=4;overflow=hidden;rotatable=0;points=[[0,0.5],[1,0.5]];portConstraint=eastwest;whiteSpace=wrap;html=1;" vertex="1" parent="F36aT2HTxTsf2F1regIV-13">
          <mxGeometry y="26" width="210" height="134" as="geometry" />
        </mxCell>
        <mxCell id="F36aT2HTxTsf2F1regIV-15" value="" style="line;strokeWidth=1;fillColor=none;align=left;verticalAlign=middle;spacingTop=-1;spacingLeft=3;spacingRight=3;rotatable=0;labelPosition=right;points=[];portConstraint=eastwest;strokeColor=inherit;" vertex="1" parent="F36aT2HTxTsf2F1regIV-13">
          <mxGeometry y="160" width="210" height="8" as="geometry" />
        </mxCell>
        <mxCell id="F36aT2HTxTsf2F1regIV-16" value="&lt;li&gt;&lt;code&gt;realizarReserva(miembro, servicio, fecha, hora)&lt;/code&gt;&lt;/li&gt;&lt;li&gt;&lt;code&gt;cancelarReserva()&lt;/code&gt;&lt;/li&gt;" style="text;strokeColor=none;fillColor=none;align=left;verticalAlign=top;spacingLeft=4;spacingRight=4;overflow=hidden;rotatable=0;points=[[0,0.5],[1,0.5]];portConstraint=eastwest;whiteSpace=wrap;html=1;" vertex="1" parent="F36aT2HTxTsf2F1regIV-13">
          <mxGeometry y="168" width="210" height="92" as="geometry" />
        </mxCell>
        <mxCell id="F36aT2HTxTsf2F1regIV-17" value="Instalacion" style="swimlane;fontStyle=1;align=center;verticalAlign=top;childLayout=stackLayout;horizontal=1;startSize=26;horizontalStack=0;resizeParent=1;resizeParentMax=0;resizeLast=0;collapsible=1;marginBottom=0;whiteSpace=wrap;html=1;" vertex="1" parent="1">
          <mxGeometry x="160" y="710" width="240" height="188" as="geometry" />
        </mxCell>
        <mxCell id="F36aT2HTxTsf2F1regIV-18" value="&lt;li&gt;&lt;code&gt;id&lt;/code&gt;&lt;/li&gt;&lt;li&gt;&lt;code&gt;nombre&lt;/code&gt;&lt;/li&gt;&lt;li&gt;&lt;code&gt;equipo&lt;/code&gt;&lt;/li&gt;" style="text;strokeColor=none;fillColor=none;align=left;verticalAlign=top;spacingLeft=4;spacingRight=4;overflow=hidden;rotatable=0;points=[[0,0.5],[1,0.5]];portConstraint=eastwest;whiteSpace=wrap;html=1;" vertex="1" parent="F36aT2HTxTsf2F1regIV-17">
          <mxGeometry y="26" width="240" height="74" as="geometry" />
        </mxCell>
        <mxCell id="F36aT2HTxTsf2F1regIV-19" value="" style="line;strokeWidth=1;fillColor=none;align=left;verticalAlign=middle;spacingTop=-1;spacingLeft=3;spacingRight=3;rotatable=0;labelPosition=right;points=[];portConstraint=eastwest;strokeColor=inherit;" vertex="1" parent="F36aT2HTxTsf2F1regIV-17">
          <mxGeometry y="100" width="240" height="8" as="geometry" />
        </mxCell>
        <mxCell id="F36aT2HTxTsf2F1regIV-20" value="&lt;li&gt;&lt;code&gt;agregarEquipo(equipo)&lt;/code&gt;&lt;/li&gt;&lt;li&gt;&lt;code&gt;modificarInstalacion(instalacion)&lt;/code&gt;&lt;/li&gt;" style="text;strokeColor=none;fillColor=none;align=left;verticalAlign=top;spacingLeft=4;spacingRight=4;overflow=hidden;rotatable=0;points=[[0,0.5],[1,0.5]];portConstraint=eastwest;whiteSpace=wrap;html=1;" vertex="1" parent="F36aT2HTxTsf2F1regIV-17">
          <mxGeometry y="108" width="240" height="80" as="geometry" />
        </mxCell>
        <mxCell id="F36aT2HTxTsf2F1regIV-21" value="Sistema de recomendaicon" style="swimlane;fontStyle=1;align=center;verticalAlign=top;childLayout=stackLayout;horizontal=1;startSize=26;horizontalStack=0;resizeParent=1;resizeParentMax=0;resizeLast=0;collapsible=1;marginBottom=0;whiteSpace=wrap;html=1;" vertex="1" parent="1">
          <mxGeometry x="520" y="737" width="240" height="200" as="geometry" />
        </mxCell>
        <mxCell id="F36aT2HTxTsf2F1regIV-22" value="&lt;li&gt;&lt;code&gt;id&lt;/code&gt;&lt;/li&gt;&lt;li&gt;&lt;code&gt;algoritmo&lt;/code&gt;&lt;/li&gt;&lt;li&gt;&lt;code&gt;preferencias&lt;/code&gt;&lt;/li&gt;&lt;li&gt;&lt;code&gt;miembros&lt;/code&gt;&lt;/li&gt;" style="text;strokeColor=none;fillColor=none;align=left;verticalAlign=top;spacingLeft=4;spacingRight=4;overflow=hidden;rotatable=0;points=[[0,0.5],[1,0.5]];portConstraint=eastwest;whiteSpace=wrap;html=1;" vertex="1" parent="F36aT2HTxTsf2F1regIV-21">
          <mxGeometry y="26" width="240" height="84" as="geometry" />
        </mxCell>
        <mxCell id="F36aT2HTxTsf2F1regIV-23" value="" style="line;strokeWidth=1;fillColor=none;align=left;verticalAlign=middle;spacingTop=-1;spacingLeft=3;spacingRight=3;rotatable=0;labelPosition=right;points=[];portConstraint=eastwest;strokeColor=inherit;" vertex="1" parent="F36aT2HTxTsf2F1regIV-21">
          <mxGeometry y="110" width="240" height="8" as="geometry" />
        </mxCell>
        <mxCell id="F36aT2HTxTsf2F1regIV-24" value="&lt;li&gt;&lt;code&gt;generarRecomendacion(miembro)&lt;/code&gt;&lt;/li&gt;&lt;li&gt;&lt;code&gt;actualizarAlgoritmo(algoritmo)&lt;/code&gt;&lt;/li&gt;" style="text;strokeColor=none;fillColor=none;align=left;verticalAlign=top;spacingLeft=4;spacingRight=4;overflow=hidden;rotatable=0;points=[[0,0.5],[1,0.5]];portConstraint=eastwest;whiteSpace=wrap;html=1;" vertex="1" parent="F36aT2HTxTsf2F1regIV-21">
          <mxGeometry y="118" width="240" height="82" as="geometry" />
        </mxCell>
      </root>
    </mxGraphModel>
  </diagram>
</mxfile>
